# Blender v2.81 (sub 16) OBJ File: 'paredes.blend'
# www.blender.org
mtllib paredes.mtl
o Cube
v 1.127769 1.724095 -0.479938
v 1.127769 -0.275905 -0.479938
v 1.127769 1.724095 0.479938
v 1.127769 -0.275905 0.479938
v -0.372231 1.724095 -0.479938
v -0.372231 -0.275905 -0.479938
v -0.372231 1.724095 0.479938
v -0.372231 -0.275905 0.479938
v 1.127769 -0.133130 0.520062
v 1.127769 -0.275905 0.520062
v -0.372231 -0.275905 0.520062
v -0.372231 -0.133130 0.520062
v 1.127769 -0.111167 0.479938
v 1.127769 -0.133130 0.518144
v -0.372231 -0.133130 0.518144
v -0.372231 -0.111167 0.479938
vt 0.770651 0.987373
vt 0.771364 0.769668
vt 0.879413 0.770023
vt 0.878700 0.987727
vt 0.888985 0.524311
vt 0.886452 0.025485
vt 0.896396 0.027831
vt 0.892440 0.522418
vt 0.987723 0.770378
vt 0.987010 0.988082
vt 0.878962 0.987728
vt 0.879675 0.770023
vt 0.871389 0.013814
vt 0.872840 0.534323
vt 0.013653 0.536719
vt 0.012201 0.016211
vt 0.248218 0.562845
vt 0.248218 0.983527
vt 0.014355 0.983527
vt 0.014355 0.562845
vt 0.982031 0.026981
vt 0.979120 0.533360
vt 0.993288 0.012965
vt 0.993288 0.550209
vt 0.248500 0.562845
vt 0.364568 0.562845
vt 0.364568 0.948875
vt 0.364568 0.983527
vt 0.248500 0.983527
vt 0.770389 0.987372
vt 0.738132 0.987267
vt 0.378774 0.986089
vt 0.379128 0.878040
vt 0.770743 0.879324
vn 0.0000 1.0000 0.0000
vn 0.0000 -1.0000 0.0000
vn 0.0000 0.0000 1.0000
vn 0.0000 0.0000 -1.0000
vn 0.0000 0.8670 0.4984
vn 1.0000 0.0000 0.0000
vn -1.0000 0.0000 0.0000
usemtl Material
s off
f 1/1/1 5/2/1 7/3/1 3/4/1
f 14/5/1 15/6/1 12/7/1 9/8/1
f 6/9/2 2/10/2 4/11/2 8/12/2
f 16/13/3 13/14/3 3/15/3 7/16/3
f 6/17/4 5/18/4 1/19/4 2/20/4
f 9/8/3 12/7/3 11/21/3 10/22/3
f 8/23/2 4/24/2 10/22/2 11/21/2
f 13/14/5 16/13/5 15/6/5 14/5/5
f 1/25/6 3/26/6 13/27/6 4/28/6 2/29/6
f 9/8/6 10/22/6 4/24/6 13/14/6 14/5/6
f 11/21/7 12/7/7 15/6/7 16/13/7 8/23/7
f 8/30/7 16/31/7 7/32/7 5/33/7 6/34/7
