# Blender v2.82 (sub 7) OBJ File: 'puertas.blend'
# www.blender.org
mtllib porton_peq.mtl
v 0.000000 0.531250 -0.025000
v 0.000000 -0.875000 -0.025000
v -0.162500 0.775000 -0.100000
v -0.162500 -0.875000 -0.100000
v 0.000000 0.531250 -0.100000
v 0.000000 -0.875000 -0.100000
v -0.154608 0.757901 -0.114192
v -0.154370 -0.875000 -0.114184
v -0.007892 0.548349 -0.114191
v -0.008128 -0.875000 -0.114180
v -0.031033 0.590422 -0.125000
v -0.017052 0.568196 -0.121089
v -0.031773 -0.875000 -0.125000
v -0.017572 -0.875000 -0.121082
v -0.145449 0.738056 -0.121090
v -0.131472 0.715837 -0.125000
v -0.144931 -0.875000 -0.121086
v -0.130751 -0.875000 -0.125000
v -0.162500 0.775000 -0.009238
v -0.162500 -0.875000 -0.009238
v 0.000000 0.531250 0.006523
v 0.000000 -0.875000 0.006523
v -0.162500 0.775000 0.081524
v -0.162500 -0.875000 0.081523
v 0.000000 0.531250 0.081524
v 0.000000 -0.875000 0.081523
v -0.154608 0.757901 0.095715
v -0.154370 -0.875000 0.095708
v -0.007892 0.548349 0.095715
v -0.008128 -0.875000 0.095704
v -0.031033 0.590422 0.106523
v -0.017052 0.568196 0.102613
v -0.031773 -0.875000 0.106523
v -0.017572 -0.875000 0.102606
v -0.145449 0.738056 0.102614
v -0.131472 0.715837 0.106524
v -0.144931 -0.875000 0.102610
v -0.130751 -0.875000 0.106523
v -0.162500 0.775000 -0.100000
v -0.162500 0.775000 -0.100000
v 0.000000 0.531250 -0.100000
v 0.000000 0.531250 -0.100000
v -0.162500 0.775000 -0.009238
v 0.000000 0.531250 -0.025000
v -0.154608 0.757901 -0.114192
v -0.007892 0.548349 -0.114191
v -0.162500 0.775000 0.081524
v -0.162500 0.775000 0.081524
v 0.000000 0.531250 0.081524
v 0.000000 0.531250 0.081524
v 0.000000 0.531250 0.006523
v -0.154608 0.757901 0.095715
v -0.007892 0.548349 0.095715
v 0.000000 -0.875000 -0.025000
v 0.450000 0.531250 -0.025000
v 0.450000 -0.875000 -0.025000
v 0.612500 0.775000 -0.100000
v 0.612500 -0.875000 -0.100000
v 0.450000 0.531250 -0.100000
v 0.450000 -0.875000 -0.100000
v 0.604608 0.757900 -0.114192
v 0.604370 -0.875000 -0.114184
v 0.457892 0.548348 -0.114191
v 0.458128 -0.875000 -0.114180
v 0.481033 0.590421 -0.125000
v 0.467052 0.568196 -0.121089
v 0.481773 -0.875000 -0.125000
v 0.467572 -0.875000 -0.121082
v 0.595449 0.738056 -0.121090
v 0.581472 0.715837 -0.125000
v 0.594931 -0.875000 -0.121086
v 0.580751 -0.875000 -0.125000
v 0.612500 0.775000 -0.009238
v 0.612500 -0.875000 -0.009238
v 0.450000 0.531250 0.006524
v 0.450000 -0.875000 0.006523
v 0.612500 0.775000 0.081524
v 0.612500 -0.875000 0.081524
v 0.450000 0.531250 0.081524
v 0.450000 -0.875000 0.081524
v 0.604608 0.757900 0.095715
v 0.604370 -0.875000 0.095708
v 0.457892 0.548348 0.095715
v 0.458128 -0.875000 0.095704
v 0.481033 0.590421 0.106524
v 0.467052 0.568196 0.102613
v 0.481773 -0.875000 0.106523
v 0.467572 -0.875000 0.102606
v 0.595449 0.738056 0.102614
v 0.581472 0.715837 0.106524
v 0.594931 -0.875000 0.102610
v 0.580751 -0.875000 0.106523
v 0.612500 0.775000 -0.100000
v 0.612500 0.775000 -0.100000
v 0.450000 0.531250 -0.100000
v 0.450000 0.531250 -0.100000
v 0.612500 0.775000 -0.009238
v 0.450000 0.531250 -0.025000
v 0.604608 0.757900 -0.114192
v 0.457892 0.548348 -0.114191
v 0.612500 0.775000 0.081524
v 0.612500 0.775000 0.081524
v 0.450000 0.531250 0.081524
v 0.450000 0.531250 0.081524
v 0.450000 0.531250 0.006524
v 0.604608 0.757900 0.095715
v 0.457892 0.548348 0.095715
vt 0.483395 0.129606
vt 0.404531 0.129606
vt 0.404531 0.861606
vt 0.483395 0.861606
vt 0.483395 0.129606
vt 0.483395 0.861606
vt 0.562259 0.861606
vt 0.562259 0.129606
vt 0.324318 0.000000
vt 0.321016 0.007778
vt 0.003303 0.007778
vt 0.000000 0.000000
vt 0.317183 0.016805
vt 0.007135 0.016806
vt 0.936292 0.639685
vt 0.936296 0.000000
vt 0.967682 0.000000
vt 0.967678 0.639685
vt 0.692558 0.742785
vt 0.692561 0.000000
vt 0.698497 0.000000
vt 0.698497 0.750563
vt 0.973616 0.000000
vt 0.973616 0.647462
vt 0.736478 0.000000
vt 0.736478 0.750563
vt 0.331454 0.016805
vt 0.331671 0.750562
vt 0.327721 0.750563
vt 0.327621 0.007778
vt 0.337605 0.750562
vt 0.337303 0.026912
vt 0.379334 0.083961
vt 0.379025 0.750562
vt 0.385185 0.094072
vt 0.384967 0.750562
vt 0.389018 0.103100
vt 0.388920 0.750563
vt 0.861643 0.007778
vt 0.893029 0.007778
vt 0.893034 0.647462
vt 0.861648 0.647463
vt 0.648637 0.007779
vt 0.654576 0.000000
vt 0.654576 0.750563
vt 0.648640 0.750563
vt 0.898968 0.000000
vt 0.898968 0.647462
vt 0.692558 0.750563
vt 0.692558 0.000000
vt 0.321016 0.007778
vt 0.320916 0.750563
vt 0.316966 0.750563
vt 0.311032 0.750563
vt 0.269613 0.750563
vt 0.269303 0.083962
vt 0.311334 0.026913
vt 0.263670 0.750563
vt 0.263452 0.094072
vt 0.259718 0.750563
vt 0.259619 0.103101
vt 0.986808 0.000000
vt 0.986808 0.639685
vt 0.973616 0.639685
vt 0.973616 0.000000
vt 0.824319 0.007778
vt 0.855705 0.007778
vt 0.855709 0.647462
vt 0.824324 0.647463
vt 0.780399 0.007778
vt 0.786338 0.000000
vt 0.786338 0.750563
vt 0.780402 0.750563
vt 0.861643 0.000000
vt 0.861643 0.647462
vt 0.824319 0.750563
vt 0.824319 0.000000
vt 0.641501 0.016805
vt 0.645334 0.007778
vt 0.645235 0.750563
vt 0.641285 0.750562
vt 0.635351 0.750562
vt 0.593931 0.750562
vt 0.593621 0.083961
vt 0.635652 0.026912
vt 0.587988 0.750562
vt 0.587771 0.094072
vt 0.584036 0.750563
vt 0.583937 0.103100
vt 0.898968 0.639684
vt 0.898972 0.000000
vt 0.930358 0.000000
vt 0.930353 0.639685
vt 0.736478 0.742785
vt 0.736481 0.000000
vt 0.742417 0.000000
vt 0.742417 0.750563
vt 0.936292 0.000000
vt 0.936292 0.647463
vt 0.780398 0.000000
vt 0.780399 0.750563
vt 0.007352 0.750563
vt 0.003402 0.750563
vt 0.003303 0.007778
vt 0.013286 0.750563
vt 0.012985 0.026913
vt 0.055016 0.083962
vt 0.054706 0.750563
vt 0.060866 0.094072
vt 0.060649 0.750563
vt 0.064700 0.103101
vt 0.064601 0.750563
vt 1.000000 0.639685
vt 0.986808 0.639685
vt 0.986808 0.000000
vt 1.000000 0.000000
vt 0.146825 0.124697
vt 0.175232 0.124697
vt 0.175232 0.565503
vt 0.146825 0.565503
vt 0.242819 0.124697
vt 0.242819 0.565503
vt 0.079238 0.565503
vt 0.079238 0.124697
vt 0.389018 0.103100
vt 0.583937 0.103100
vt 0.580635 0.110879
vt 0.392321 0.110879
vt 0.259619 0.103101
vt 0.256316 0.110879
vt 0.068002 0.110879
vt 0.064700 0.103101
vt 0.327621 0.007778
vt 0.645334 0.007778
vt 0.324318 0.000000
vt 0.648637 0.000000
vn 0.0000 1.0000 0.0000
vn 0.0000 0.6387 0.7695
vn 0.0000 0.3283 0.9446
vn 1.0000 0.0000 0.0000
vn 0.9672 -0.0000 -0.2542
vn 0.9521 -0.0000 -0.3059
vn -0.8319 -0.0001 -0.5549
vn -0.7497 -0.0001 -0.6617
vn -0.9672 -0.0000 -0.2542
vn -0.9863 -0.0000 -0.1650
vn 0.7496 -0.0001 -0.6619
vn 0.6677 -0.0001 -0.7445
vn -1.0000 0.0000 0.0000
vn -0.2932 0.1413 -0.9456
vn -0.4393 -0.0001 -0.8984
vn -0.1351 -0.0001 -0.9908
vn -0.1110 0.0595 -0.9920
vn 0.0247 -0.0281 -0.9993
vn 0.1350 -0.0001 -0.9908
vn 0.1608 -0.1208 -0.9796
vn 0.4389 -0.0001 -0.8985
vn 0.9521 -0.0000 0.3059
vn 0.9672 -0.0000 0.2542
vn -0.8319 -0.0001 0.5549
vn -0.9863 -0.0000 0.1650
vn -0.9672 -0.0000 0.2542
vn -0.7497 -0.0001 0.6617
vn 0.6677 -0.0001 0.7445
vn 0.7496 -0.0001 0.6619
vn -0.4239 0.0434 0.9047
vn -0.4392 -0.0001 0.8984
vn -0.1351 -0.0001 0.9908
vn 0.1350 -0.0001 0.9908
vn 0.0247 -0.0281 0.9993
vn -0.1110 0.0595 0.9920
vn 0.4389 -0.0001 0.8985
vn 0.1608 -0.1208 0.9796
vn -0.9521 -0.0000 -0.3059
vn 0.8319 -0.0001 -0.5549
vn 0.9863 -0.0000 -0.1650
vn 0.7497 -0.0001 -0.6617
vn -0.6677 -0.0001 -0.7445
vn -0.7496 -0.0001 -0.6619
vn 0.2932 0.1413 -0.9456
vn 0.4393 -0.0001 -0.8984
vn 0.1351 -0.0001 -0.9908
vn -0.1350 -0.0001 -0.9908
vn -0.0247 -0.0281 -0.9993
vn 0.1110 0.0595 -0.9920
vn -0.4389 -0.0001 -0.8985
vn -0.1608 -0.1208 -0.9796
vn -0.9521 -0.0000 0.3059
vn 0.8319 -0.0001 0.5549
vn 0.7497 -0.0001 0.6617
vn 0.9863 -0.0000 0.1650
vn -0.7496 -0.0001 0.6619
vn -0.6677 -0.0001 0.7445
vn 0.4239 0.0434 0.9047
vn 0.4393 -0.0001 0.8984
vn 0.1351 -0.0001 0.9908
vn 0.1110 0.0595 0.9920
vn -0.0247 -0.0281 0.9993
vn -0.1350 -0.0001 0.9908
vn -0.1608 -0.1208 0.9796
vn -0.4389 -0.0001 0.8985
vn -0.0000 -1.0000 0.0000
vn -0.0000 -0.4540 -0.8910
vn -0.0000 -0.6387 -0.7695
vn -0.0000 -0.4540 0.8910
vn -0.0000 -0.6387 0.7695
vn 0.0000 0.5295 -0.8483
vn 0.0000 0.6387 -0.7695
usemtl Material
s off
f 40/1/1 19/2/1 73/3/1 94/4/1
f 48/5/1 102/6/1 73/7/1 19/8/1
f 23/9/2 27/10/2 81/11/2 77/12/2
f 27/10/3 35/13/3 89/14/3 81/11/3
s 1
f 44/15/4 2/16/4 6/17/5 41/18/6
f 45/19/7 8/20/8 4/21/9 39/22/10
f 41/18/6 6/17/5 10/23/11 46/24/12
f 20/25/13 43/26/13 39/22/10 4/21/9
f 15/27/14 17/28/15 8/29/8 45/30/7
f 18/31/16 16/32/17 11/33/18 13/34/19
f 13/34/19 11/33/18 12/35/20 14/36/21
f 14/36/21 12/35/20 46/37/12 10/38/11
f 16/32/17 18/31/16 17/28/15 15/27/14
f 51/39/4 49/40/22 26/41/23 22/42/4
f 52/43/24 47/44/25 24/45/26 28/46/27
f 49/40/22 53/47/28 30/48/29 26/41/23
f 20/49/13 24/45/26 47/44/25 43/50/13
f 35/13/30 52/51/24 28/52/27 37/53/31
f 38/54/32 33/55/33 31/56/34 36/57/35
f 33/55/33 34/58/36 32/59/37 31/56/34
f 34/58/36 30/60/29 53/61/28 32/59/37
f 36/57/35 35/13/30 37/53/31 38/54/32
f 2/62/4 44/63/4 51/64/4 22/65/4
f 98/66/13 95/67/38 60/68/9 56/69/13
f 99/70/39 93/71/40 58/72/5 62/73/41
f 95/67/38 100/74/42 64/75/43 60/68/9
f 74/76/4 58/72/5 93/71/40 97/77/4
f 69/78/44 99/79/39 62/80/41 71/81/45
f 72/82/46 67/83/47 65/84/48 70/85/49
f 67/83/47 68/86/50 66/87/51 65/84/48
f 68/86/50 64/88/43 100/89/42 66/87/51
f 70/85/49 69/78/44 71/81/45 72/82/46
f 105/90/13 76/91/13 80/92/26 103/93/52
f 106/94/53 82/95/54 78/96/23 101/97/55
f 103/93/52 80/92/26 84/98/56 107/99/57
f 74/100/4 97/101/4 101/97/55 78/96/23
f 89/14/58 91/102/59 82/103/54 106/104/53
f 92/105/60 90/106/61 85/107/62 87/108/63
f 87/108/63 85/107/62 86/109/64 88/110/65
f 88/110/65 86/109/64 107/111/57 84/112/56
f 90/106/61 92/105/60 91/102/59 89/14/58
f 56/113/13 76/114/13 105/115/13 98/116/13
f 51/117/66 44/118/66 98/119/66 105/120/66
f 44/118/66 42/121/66 96/122/66 98/119/66
f 104/123/66 50/124/66 51/117/66 105/120/66
f 9/125/67 63/126/67 96/127/68 42/128/68
f 29/129/69 50/130/70 104/131/70 83/132/69
f 29/129/69 83/132/69 86/109/64 32/59/37
f 32/59/37 86/109/64 85/107/62 31/56/34
f 36/57/35 31/56/34 85/107/62 90/106/61
f 9/125/67 12/35/20 66/87/51 63/126/67
f 12/35/20 11/33/18 65/84/48 66/87/51
f 16/32/17 70/85/49 65/84/48 11/33/18
f 16/32/17 15/27/14 69/78/44 70/85/49
f 7/133/71 61/134/71 69/78/44 15/27/14
f 3/135/72 57/136/72 61/134/71 7/133/71
f 36/57/35 90/106/61 89/14/58 35/13/30
l 5 1
l 1 21
l 25 21
l 59 55
l 55 75
l 79 75
