# Blender v2.82 (sub 7) OBJ File: 'puertas.blend'
# www.blender.org
mtllib puerton.mtl
v 0.450000 0.531250 -0.025000
v 0.450000 -0.875000 -0.025000
v 0.612500 0.775000 -0.100000
v 0.612500 -0.875000 -0.100000
v 0.450000 0.531250 -0.100000
v 0.450000 -0.875000 -0.100000
v 0.604608 0.757901 -0.114192
v 0.604370 -0.875000 -0.114184
v 0.457892 0.548348 -0.114191
v 0.458128 -0.875000 -0.114180
v 0.481033 0.590421 -0.125000
v 0.467052 0.568196 -0.121089
v 0.481773 -0.875000 -0.125000
v 0.467572 -0.875000 -0.121082
v 0.595449 0.738056 -0.121090
v 0.581472 0.715837 -0.125000
v 0.594931 -0.875000 -0.121086
v 0.580751 -0.875000 -0.125000
v 0.612500 0.775000 -0.009238
v 0.612500 -0.875000 -0.009238
v 0.450000 0.531250 0.006524
v 0.450000 -0.875000 0.006523
v 0.612500 0.775000 0.081524
v 0.612500 -0.875000 0.081523
v 0.450000 0.531250 0.081524
v 0.450000 -0.875000 0.081523
v 0.604608 0.757901 0.095715
v 0.604370 -0.875000 0.095708
v 0.457892 0.548348 0.095715
v 0.458128 -0.875000 0.095704
v 0.481033 0.590421 0.106524
v 0.467052 0.568196 0.102613
v 0.481773 -0.875000 0.106523
v 0.467572 -0.875000 0.102606
v 0.595449 0.738056 0.102614
v 0.581472 0.715837 0.106524
v 0.594931 -0.875000 0.102610
v 0.580751 -0.875000 0.106523
v -0.450000 0.531250 -0.025000
v -0.450000 -0.875000 -0.025000
v 0.000000 0.531250 -0.025000
v -0.612500 0.775000 -0.100000
v -0.612500 -0.875000 -0.100000
v -0.450000 0.531250 -0.100000
v -0.450000 -0.875000 -0.100000
v 0.000000 0.531250 -0.100000
v 0.000000 0.775000 -0.100000
v -0.604608 0.757901 -0.114192
v -0.604370 -0.875000 -0.114184
v -0.457892 0.548348 -0.114191
v -0.458128 -0.875000 -0.114180
v 0.000000 0.548245 -0.114198
v 0.000000 0.758007 -0.114196
v -0.481033 0.590421 -0.125000
v -0.467052 0.568196 -0.121089
v -0.481773 -0.875000 -0.125000
v -0.467572 -0.875000 -0.121082
v 0.000000 0.567957 -0.121092
v 0.000000 0.590060 -0.125000
v -0.595449 0.738056 -0.121090
v -0.581472 0.715837 -0.125000
v -0.594931 -0.875000 -0.121086
v -0.580751 -0.875000 -0.125000
v 0.000000 0.716182 -0.125000
v 0.000000 0.738293 -0.121092
v -0.612500 0.775000 -0.009238
v -0.612500 -0.875000 -0.009238
v -0.450000 0.531250 0.006524
v -0.450000 -0.875000 0.006523
v 0.000000 0.775000 -0.009238
v 0.000000 0.531250 0.006524
v -0.612500 0.775000 0.081524
v -0.612500 -0.875000 0.081523
v -0.450000 0.531250 0.081524
v -0.450000 -0.875000 0.081523
v 0.000000 0.531250 0.081524
v 0.000000 0.775000 0.081524
v -0.604608 0.757901 0.095715
v -0.604370 -0.875000 0.095708
v -0.457892 0.548348 0.095715
v -0.458128 -0.875000 0.095704
v 0.000000 0.548245 0.095721
v 0.000000 0.758007 0.095720
v -0.481033 0.590421 0.106524
v -0.467052 0.568196 0.102613
v -0.481773 -0.875000 0.106523
v -0.467572 -0.875000 0.102606
v 0.000000 0.567957 0.102616
v 0.000000 0.590060 0.106524
v -0.595449 0.738056 0.102614
v -0.581472 0.715837 0.106524
v -0.594931 -0.875000 0.102610
v -0.580751 -0.875000 0.106523
v 0.000000 0.716182 0.106524
v 0.000000 0.738293 0.102615
v 0.612500 0.775000 -0.100000
v 0.612500 0.775000 -0.100000
v 0.000000 0.775000 -0.100000
v 0.000000 0.531250 -0.100000
v 0.450000 0.531250 -0.100000
v 0.450000 0.531250 -0.100000
v 0.612500 0.775000 -0.009238
v 0.450000 0.531250 -0.025000
v 0.604608 0.757901 -0.114192
v 0.457892 0.548348 -0.114191
v 0.612500 0.775000 0.081524
v 0.612500 0.775000 0.081524
v 0.000000 0.775000 0.081524
v 0.000000 0.531250 0.081524
v 0.450000 0.531250 0.081524
v 0.450000 0.531250 0.081524
v 0.450000 0.531250 0.006524
v 0.604608 0.757901 0.095715
v 0.457892 0.548348 0.095715
v -0.612500 0.775000 -0.100000
v -0.612500 0.775000 -0.100000
v -0.450000 0.531250 -0.100000
v -0.450000 0.531250 -0.100000
v -0.612500 0.775000 -0.009238
v -0.450000 0.531250 -0.025000
v -0.604608 0.757901 -0.114192
v -0.457892 0.548348 -0.114191
v -0.612500 0.775000 0.081524
v -0.612500 0.775000 0.081524
v -0.450000 0.531250 0.081524
v -0.450000 0.531250 0.081524
v -0.450000 0.531250 0.006524
v -0.604608 0.757901 0.095715
v -0.457892 0.548348 0.095715
vt 0.486662 0.702409
vt 0.488356 0.770091
vt 0.031606 0.781527
vt 0.029912 0.713844
vt 0.515922 0.838499
vt 0.515978 0.864527
vt 0.027955 0.865576
vt 0.027899 0.839548
vt 0.528618 0.876919
vt 0.516587 0.872865
vt 0.512649 0.630624
vt 0.524570 0.630430
vt 0.260334 0.418385
vt 0.299973 0.418050
vt 0.297961 0.180210
vt 0.258322 0.180546
vt 0.640518 0.950372
vt 0.651740 0.961114
vt 0.028059 0.958204
vt 0.028068 0.947514
vt 0.524975 0.873025
vt 0.027998 0.874094
vt 0.027899 0.992511
vt 0.651580 0.995420
vt 0.615101 0.629491
vt 0.609970 0.930798
vt 0.552821 0.890161
vt 0.547894 0.630052
vt 0.540009 0.881667
vt 0.535812 0.630248
vt 0.622587 0.939911
vt 0.028060 0.937138
vt 0.028060 0.926956
vt 0.028105 0.891703
vt 0.644998 0.949092
vt 0.633473 0.944828
vt 0.637652 0.629774
vt 0.649190 0.629925
vt 0.028056 0.882767
vt 0.626769 0.629631
vt 0.509079 0.606833
vt 0.499513 0.224752
vt 0.556131 0.223335
vt 0.565697 0.605416
vt 0.352230 0.458630
vt 0.353139 0.036146
vt 0.375671 0.036195
vt 0.374763 0.458678
vt 0.385491 0.469620
vt 0.172098 0.466114
vt 0.172266 0.455793
vt 0.381982 0.459205
vt 0.217963 0.180887
vt 0.219975 0.418727
vt 0.259615 0.418391
vt 0.257603 0.180552
vt 0.449079 0.566493
vt 0.446605 0.036293
vt 0.455859 0.036285
vt 0.458379 0.576208
vt 0.383045 0.036232
vt 0.382120 0.466466
vt 0.485558 0.036146
vt 0.488078 0.576069
vt 0.171285 0.544489
vt 0.171771 0.486306
vt 0.396954 0.490573
vt 0.432134 0.540047
vt 0.389601 0.479482
vt 0.171940 0.475846
vt 0.440024 0.550970
vt 0.437622 0.036286
vt 0.428808 0.036286
vt 0.398289 0.036324
vt 0.447972 0.570371
vt 0.171661 0.574003
vt 0.171530 0.564013
vt 0.444280 0.560394
vt 0.390554 0.036282
vt 0.171406 0.554591
vt 0.705319 0.222826
vt 0.722348 0.222826
vt 0.722350 0.982468
vt 0.705318 0.982468
vt 0.616982 0.323243
vt 0.624011 0.603956
vt 0.643675 0.603463
vt 0.636647 0.322750
vt 0.028192 0.645149
vt 0.484942 0.633713
vt 0.486636 0.701395
vt 0.029886 0.712831
vt 0.152760 0.143446
vt 0.151833 0.574764
vt 0.128829 0.574715
vt 0.129757 0.143396
vt 0.118804 0.132225
vt 0.336659 0.135805
vt 0.336488 0.146341
vt 0.122387 0.142858
vt 0.298680 0.180204
vt 0.300692 0.418044
vt 0.340332 0.417708
vt 0.338320 0.179869
vt 0.053886 0.033327
vt 0.056412 0.574615
vt 0.046965 0.574623
vt 0.044392 0.023409
vt 0.121301 0.574676
vt 0.122246 0.135445
vt 0.016644 0.574764
vt 0.014071 0.023550
vt 0.337489 0.055791
vt 0.336993 0.115190
vt 0.107101 0.110835
vt 0.071185 0.060326
vt 0.114608 0.122158
vt 0.336820 0.125869
vt 0.063131 0.049174
vt 0.065583 0.574621
vt 0.074581 0.574622
vt 0.105738 0.574582
vt 0.055016 0.029367
vt 0.337105 0.025660
vt 0.337240 0.035858
vt 0.058786 0.039554
vt 0.113635 0.574625
vt 0.337366 0.045477
vt 0.556978 0.223313
vt 0.613596 0.221896
vt 0.623163 0.603977
vt 0.566545 0.605394
vt 0.786287 0.197080
vt 0.821004 0.197005
vt 0.822404 0.847961
vt 0.787687 0.848036
vt 0.837534 0.180146
vt 0.832127 0.196193
vt 0.509011 0.201446
vt 0.508752 0.185545
vt 0.217245 0.180893
vt 0.177605 0.181228
vt 0.179617 0.419068
vt 0.219257 0.418733
vt 0.935510 0.030886
vt 0.949838 0.015917
vt 0.945957 0.847822
vt 0.931699 0.847810
vt 0.832340 0.185005
vt 0.833766 0.847903
vt 0.991718 0.848036
vt 0.995598 0.016131
vt 0.507500 0.064790
vt 0.909401 0.071634
vt 0.855197 0.147862
vt 0.508248 0.154435
vt 0.843867 0.164952
vt 0.508509 0.170550
vt 0.921558 0.054804
vt 0.917858 0.847820
vt 0.904277 0.847821
vt 0.857254 0.847761
vt 0.933803 0.024911
vt 0.928115 0.040284
vt 0.507877 0.034710
vt 0.508079 0.019319
vt 0.845336 0.847826
vt 0.507687 0.049226
vt 0.691291 0.221519
vt 0.691291 0.981161
vt 0.674262 0.981161
vt 0.674259 0.221519
vt 0.176887 0.181234
vt 0.160225 0.181375
vt 0.162237 0.419215
vt 0.178899 0.419074
vn 0.0000 1.0000 0.0000
vn -1.0000 0.0000 0.0000
vn -0.9521 -0.0000 -0.3059
vn -0.9672 -0.0000 -0.2542
vn 0.0001 -0.4551 -0.8905
vn 0.0001 -0.6399 -0.7685
vn 0.0000 -0.6399 -0.7685
vn -0.0000 -0.4925 -0.8703
vn 0.0000 -1.0000 0.0000
vn 0.8319 -0.0001 -0.5549
vn 0.9863 -0.0000 -0.1650
vn 0.9672 -0.0000 -0.2542
vn 0.7497 -0.0001 -0.6617
vn -0.6677 -0.0001 -0.7445
vn -0.7496 -0.0001 -0.6619
vn 1.0000 0.0000 0.0000
vn -0.0000 0.0872 -0.9962
vn 0.1111 0.0596 -0.9920
vn -0.0247 -0.0281 -0.9993
vn 0.0000 -0.0872 -0.9962
vn -0.1607 -0.1211 -0.9795
vn -0.0000 -0.2523 -0.9676
vn 0.2932 0.1416 -0.9455
vn 0.4392 -0.0001 -0.8984
vn 0.1351 -0.0001 -0.9908
vn -0.1350 -0.0001 -0.9908
vn 0.0001 0.6399 -0.7685
vn 0.0001 0.5306 -0.8476
vn 0.0000 0.4925 -0.8703
vn 0.0000 0.6399 -0.7685
vn -0.4389 -0.0001 -0.8985
vn 0.0000 0.2523 -0.9677
vn -0.9672 -0.0000 0.2542
vn -0.9521 -0.0000 0.3059
vn 0.0001 -0.4551 0.8905
vn 0.0000 -0.4925 0.8703
vn 0.0000 -0.6399 0.7685
vn 0.0001 -0.6399 0.7685
vn 0.8319 -0.0001 0.5549
vn 0.7497 -0.0001 0.6617
vn 0.9672 -0.0000 0.2542
vn 0.9863 -0.0000 0.1650
vn -0.7496 -0.0001 0.6619
vn -0.6677 -0.0001 0.7445
vn 0.0000 0.0872 0.9962
vn 0.0000 -0.0872 0.9962
vn -0.0247 -0.0281 0.9993
vn 0.1111 0.0596 0.9920
vn -0.1607 -0.1211 0.9795
vn 0.0000 -0.2523 0.9676
vn 0.2932 0.1416 0.9455
vn 0.4392 -0.0001 0.8984
vn 0.1351 -0.0001 0.9908
vn -0.1350 -0.0001 0.9908
vn 0.0001 0.6399 0.7685
vn 0.0000 0.6399 0.7685
vn 0.0000 0.4925 0.8703
vn 0.0001 0.5306 0.8476
vn -0.4389 -0.0001 0.8985
vn 0.0000 0.2523 0.9677
vn 0.9521 -0.0000 -0.3059
vn -0.0001 -0.4551 -0.8905
vn -0.0001 -0.6399 -0.7685
vn -0.8319 -0.0001 -0.5549
vn -0.7497 -0.0001 -0.6617
vn -0.9863 -0.0000 -0.1650
vn 0.7496 -0.0001 -0.6619
vn 0.6677 -0.0001 -0.7445
vn 0.0247 -0.0281 -0.9993
vn -0.1111 0.0596 -0.9920
vn 0.1607 -0.1211 -0.9795
vn -0.2932 0.1416 -0.9455
vn -0.4392 -0.0001 -0.8984
vn -0.1351 -0.0001 -0.9908
vn 0.1350 -0.0001 -0.9908
vn -0.0001 0.6399 -0.7685
vn -0.0001 0.5306 -0.8476
vn 0.4389 -0.0001 -0.8985
vn 0.9521 -0.0000 0.3059
vn -0.0001 -0.4551 0.8905
vn -0.0001 -0.6399 0.7685
vn -0.8319 -0.0001 0.5549
vn -0.9863 -0.0000 0.1650
vn -0.7497 -0.0001 0.6617
vn 0.6677 -0.0001 0.7445
vn 0.7496 -0.0001 0.6619
vn -0.1111 0.0596 0.9920
vn 0.0247 -0.0281 0.9993
vn 0.1607 -0.1211 0.9795
vn -0.2932 0.1416 0.9455
vn -0.4392 -0.0001 0.8984
vn -0.1351 -0.0001 0.9908
vn 0.1350 -0.0001 0.9908
vn -0.0001 0.6399 0.7685
vn -0.0001 0.5306 0.8476
vn 0.4389 -0.0001 0.8985
usemtl Material
s 1
f 19/1/1 97/2/1 98/3/1 70/4/1
f 103/5/2 100/6/3 6/7/4 2/8/2
f 9/9/5 101/10/6 99/11/7 52/12/8
f 41/13/9 46/14/9 5/15/9 1/16/9
f 104/17/10 96/18/11 4/19/12 8/20/13
f 100/6/3 105/21/14 10/22/15 6/7/4
f 20/23/16 4/19/12 96/18/11 102/24/16
f 64/25/17 16/26/18 11/27/19 59/28/20
f 12/29/21 9/9/5 52/12/8 58/30/22
f 15/31/23 104/17/10 8/20/13 17/32/24
f 18/33/25 13/34/26 11/27/19 16/26/18
f 3/35/27 7/36/28 53/37/29 47/38/30
f 13/34/26 14/39/31 12/29/21 11/27/19
f 11/27/19 12/29/21 58/30/22 59/28/20
f 14/39/31 10/22/15 105/21/14 12/29/21
f 16/26/18 15/31/23 17/32/24 18/33/25
f 64/25/17 65/40/32 15/31/23 16/26/18
f 65/40/32 53/37/29 7/36/28 15/31/23
f 19/41/1 70/42/1 108/43/1 107/44/1
f 112/45/2 22/46/2 26/47/33 110/48/34
f 29/49/35 82/50/36 109/51/37 111/52/38
f 71/53/9 21/54/9 25/55/9 76/56/9
f 113/57/39 28/58/40 24/59/41 106/60/42
f 110/48/34 26/47/33 30/61/43 114/62/44
f 20/63/16 102/64/16 106/60/42 24/59/41
f 94/65/45 89/66/46 31/67/47 36/68/48
f 32/69/49 88/70/50 82/50/36 29/49/35
f 35/71/51 37/72/52 28/58/40 113/57/39
f 38/73/53 36/68/48 31/67/47 33/74/54
f 23/75/55 77/76/56 83/77/57 27/78/58
f 33/74/54 31/67/47 32/69/49 34/79/59
f 31/67/47 89/66/46 88/70/50 32/69/49
f 34/79/59 32/69/49 114/62/44 30/61/43
f 36/68/48 38/73/53 37/72/52 35/71/51
f 94/65/45 36/68/48 35/71/51 95/80/60
f 95/80/60 35/71/51 27/78/58 83/77/57
f 2/81/2 22/82/2 112/83/2 103/84/2
f 41/85/9 1/86/9 21/87/9 71/88/9
f 66/89/1 70/90/1 98/91/1 116/92/1
f 120/93/16 40/94/16 45/95/12 117/96/61
f 50/97/62 52/98/8 99/99/7 118/100/63
f 41/101/9 39/102/9 44/103/9 46/104/9
f 121/105/64 49/106/65 43/107/4 115/108/66
f 117/96/61 45/95/12 51/109/67 122/110/68
f 67/111/2 119/112/2 115/108/66 43/107/4
f 64/113/17 59/114/20 54/115/69 61/116/70
f 55/117/71 58/118/22 52/98/8 50/97/62
f 60/119/72 62/120/73 49/106/65 121/105/64
f 63/121/74 61/116/70 54/115/69 56/122/75
f 42/123/76 47/124/30 53/125/29 48/126/77
f 56/122/75 54/115/69 55/117/71 57/127/78
f 54/115/69 59/114/20 58/118/22 55/117/71
f 57/127/78 55/117/71 122/110/68 51/109/67
f 61/116/70 63/121/74 62/120/73 60/119/72
f 64/113/17 61/116/70 60/119/72 65/128/32
f 65/128/32 60/119/72 48/126/77 53/125/29
f 66/129/1 124/130/1 108/131/1 70/132/1
f 127/133/16 125/134/79 75/135/41 69/136/16
f 80/137/80 126/138/81 109/139/37 82/140/36
f 71/141/9 76/142/9 74/143/9 68/144/9
f 128/145/82 123/146/83 73/147/33 79/148/84
f 125/134/79 129/149/85 81/150/86 75/135/41
f 67/151/2 73/147/33 123/146/83 119/152/2
f 94/153/45 91/154/87 84/155/88 89/156/46
f 85/157/89 80/137/80 82/140/36 88/158/50
f 90/159/90 128/145/82 79/148/84 92/160/91
f 93/161/92 86/162/93 84/155/88 91/154/87
f 72/163/94 78/164/95 83/165/57 77/166/56
f 86/162/93 87/167/96 85/157/89 84/155/88
f 84/155/88 85/157/89 88/158/50 89/156/46
f 87/167/96 81/150/86 129/149/85 85/157/89
f 91/154/87 90/159/90 92/160/91 93/161/92
f 94/153/45 95/168/60 90/159/90 91/154/87
f 95/168/60 83/165/57 78/164/95 90/159/90
f 40/169/16 120/170/16 127/171/16 69/172/16
f 41/173/9 71/174/9 68/175/9 39/176/9
