# Blender v2.81 (sub 16) OBJ File: 'sillon.blend'
# www.blender.org
mtllib cojin.mtl
o Cube.000
v -1.217649 -1.681863 -5.728714
v -1.165810 -1.334501 -5.706394
v -1.238701 -1.653224 -5.943879
v -1.184678 -1.343218 -5.930150
v -1.117033 -1.689382 -6.124640
v -1.060284 -1.336572 -6.121641
v -1.096427 -1.679618 -5.907723
v -1.042405 -1.369613 -5.893994
v -1.113541 -1.332879 -5.912072
v -1.167564 -1.678397 -5.925801
v -1.069416 -1.524615 -5.900858
v -1.094336 -1.511418 -6.100801
v -1.211689 -1.498221 -5.937014
v -1.186343 -1.511418 -5.738749
v -1.170785 -1.673020 -5.764125
v -1.187899 -1.349817 -5.768474
v -1.258095 -1.653224 -5.867560
v -1.165283 -1.343218 -6.006468
v -1.164343 -1.659823 -6.087476
v -1.039184 -1.363014 -6.055670
v -1.077032 -1.679618 -5.984041
v -1.061799 -1.369613 -5.817676
v -1.241921 -1.659823 -5.782203
v -1.116762 -1.363014 -5.750396
v -1.219306 -1.653224 -6.020197
v -1.204073 -1.343218 -5.853831
v -1.093206 -1.673020 -6.069398
v -1.110320 -1.349817 -6.073748
v -1.115822 -1.679618 -5.831404
v -1.023010 -1.369613 -5.970313
v -1.077973 -1.335869 -5.903033
v -1.149110 -1.322672 -5.921111
v -1.094147 -1.313922 -5.988390
v -1.132936 -1.313922 -5.835753
v -1.131995 -1.691460 -5.916762
v -1.203132 -1.678263 -5.934840
v -1.186958 -1.690284 -5.849482
v -1.148169 -1.690284 -6.002119
v -1.088810 -1.524615 -5.824540
v -1.050021 -1.524615 -5.977177
v -1.082922 -1.602117 -5.904291
v -1.055910 -1.447114 -5.897426
v -1.066195 -1.518017 -6.062534
v -1.137332 -1.504820 -6.080612
v -1.107841 -1.588920 -6.104233
v -1.080830 -1.433917 -6.097368
v -1.192295 -1.498221 -6.013332
v -1.231084 -1.498221 -5.860696
v -1.225195 -1.575723 -5.940446
v -1.198184 -1.420720 -5.933582
v -1.214910 -1.504820 -5.775338
v -1.143773 -1.518017 -5.757260
v -1.199849 -1.588920 -5.742181
v -1.172838 -1.433917 -5.735317
v -1.130268 -1.440516 -5.753829
v -1.157279 -1.595518 -5.760693
v -1.228416 -1.582321 -5.778770
v -1.217578 -1.420720 -5.857264
v -1.244590 -1.575723 -5.864128
v -1.205800 -1.575723 -6.016765
v -1.123826 -1.427318 -6.077180
v -1.150837 -1.582321 -6.084044
v -1.079700 -1.595518 -6.065966
v -1.036515 -1.447114 -5.973745
v -1.063527 -1.602117 -5.980609
v -1.102316 -1.602117 -5.827972
v -1.183738 -1.678263 -6.011158
v -1.222527 -1.678263 -5.858521
v -1.151390 -1.691460 -5.840443
v -1.168504 -1.322672 -5.844792
v -1.129715 -1.322672 -5.997429
v -1.058578 -1.335869 -5.979352
v -1.097368 -1.335869 -5.826715
v -1.112601 -1.691460 -5.993080
v -1.075305 -1.447114 -5.821108
v -1.052689 -1.440516 -6.059102
v -1.178789 -1.420720 -6.009901
v -1.201405 -1.427318 -5.771906
vt 0.283227 0.528576
vt 0.283227 0.417202
vt 0.370427 0.417202
vt 0.370427 0.528576
vt 0.550240 0.905591
vt 0.617047 0.977598
vt 0.493737 0.977587
vt 0.172192 0.622278
vt 0.122424 0.528576
vt 0.244848 0.530824
vt 0.294616 0.780919
vt 0.233404 0.701599
vt 0.306060 0.610145
vt 0.367272 0.689465
vt 0.172192 0.935062
vt 0.110980 0.855742
vt 0.173713 0.776758
vt 0.226933 0.866122
vt 0.049768 0.776422
vt 0.000000 0.682719
vt 0.009431 0.562130
vt 0.104509 0.707482
vt 0.426930 0.748077
vt 0.488585 0.826834
vt 0.432082 0.898830
vt 0.370427 0.820073
vt 0.550240 0.590584
vt 0.611895 0.669341
vt 0.552046 0.745721
vt 0.487071 0.671315
vt 0.673550 0.748098
vt 0.740357 0.820105
vt 0.709613 0.954935
vt 0.610381 0.828829
vt 0.196027 0.528576
vt 0.108827 0.528576
vt 0.108827 0.417202
vt 0.196027 0.417202
vt 0.469340 0.143282
vt 0.469340 0.254655
vt 0.419883 0.254478
vt 0.419883 0.143105
vt 0.469340 0.366028
vt 0.469340 0.477401
vt 0.419883 0.477224
vt 0.419883 0.365851
vt 0.590615 0.477456
vt 0.590615 0.366083
vt 0.734251 0.143093
vt 0.734251 0.254466
vt 0.681373 0.254656
vt 0.681373 0.143283
vt 0.108827 0.083083
vt 0.021628 0.083083
vt 0.000000 0.000000
vt 0.108827 0.040430
vt 0.021628 0.194456
vt 0.108827 0.194456
vt 0.196027 0.305829
vt 0.283227 0.305829
vt 0.021628 0.417202
vt 0.021628 0.305829
vt 0.108827 0.305829
vt 1.000000 0.021473
vt 1.000000 0.132847
vt 0.878982 0.132872
vt 0.878982 0.021499
vt 0.878982 0.244245
vt 0.789054 0.244221
vt 0.789054 0.132848
vt 0.878982 0.355618
vt 0.878983 0.466991
vt 0.765277 0.497493
vt 0.789054 0.355594
vt 0.783584 0.000000
vt 0.021628 0.528576
vt 1.000000 0.244220
vt 0.734251 0.132768
vt 0.734251 0.021395
vt 0.734251 0.244142
vt 1.000000 0.355593
vt 0.370427 0.305829
vt 0.196027 0.194456
vt 0.196027 0.083082
vt 0.283227 0.194456
vt 0.370427 0.194456
vt 0.734251 0.365839
vt 0.681373 0.366029
vt 0.283227 0.083082
vt 0.734251 0.031720
vt 0.684548 0.000000
vt 0.590615 0.254710
vt 0.590615 0.143337
vt 0.590615 0.031964
vt 0.469340 0.031909
vt 0.419883 0.031732
vt 1.000000 0.466966
vt 0.370427 0.142928
vt 0.370427 0.031555
vt 0.370427 0.254301
vt 0.678702 0.583845
vt 0.740357 0.662602
vt 0.493737 0.505077
vt 0.391859 0.543606
vt 0.617047 0.505088
vt 0.370427 0.662570
vt 0.061212 0.918431
vt 0.000000 0.839111
vt 0.244848 1.000000
vt 0.343357 0.992613
vt 0.122424 0.997751
vt 0.367272 0.845857
vt 0.370427 0.365674
vt 0.370427 0.477047
vt 0.706090 0.505077
vt 0.734251 0.355515
vt 0.734251 0.466888
vt 0.370427 0.083082
vn -0.9039 0.1561 0.3981
vn -0.9847 0.1726 -0.0239
vn -0.9347 -0.3521 -0.0483
vn -0.8930 -0.3657 0.2623
vn 0.1810 -0.9834 -0.0142
vn 0.7723 -0.5786 -0.2622
vn 0.7799 -0.6258 0.0060
vn 0.5505 0.8065 0.2158
vn 0.7009 0.2675 0.6612
vn 0.8625 0.2903 0.4145
vn 0.5855 0.8075 0.0715
vn 0.4951 0.8596 0.1258
vn 0.9185 0.3190 0.2334
vn 0.9557 0.2903 0.0475
vn -0.3180 0.9315 -0.1764
vn -0.2362 0.9698 -0.0600
vn 0.1714 0.9842 0.0435
vn 0.1508 0.9885 -0.0044
vn -0.3656 0.9308 0.0011
vn -0.8263 0.4985 0.2621
vn -0.1440 0.5142 0.8455
vn 0.1307 0.9887 0.0732
vn 0.1307 -0.9860 0.1036
vn 0.0587 -0.9981 0.0149
vn 0.7297 -0.6581 0.1854
vn 0.6882 -0.6258 0.3671
vn -0.4467 -0.8930 -0.0549
vn -0.3610 -0.9280 -0.0917
vn -0.1712 -0.9843 -0.0435
vn -0.1673 -0.9857 -0.0165
vn -0.4352 -0.8861 -0.1593
vn -0.6830 -0.3371 -0.6479
vn 0.1194 -0.5894 -0.7989
vn -0.1568 -0.9865 -0.0464
vn -0.8962 0.1375 0.4217
vn -0.9196 0.1143 0.3757
vn 0.9847 -0.1726 0.0239
vn 0.9539 -0.1769 0.2424
vn 0.9330 0.2735 -0.2337
vn 0.9124 -0.1666 -0.3737
vn -0.6125 0.1551 -0.7751
vn -0.5975 0.1391 -0.7897
vn 0.2463 0.0000 -0.9692
vn 0.2561 0.0465 -0.9655
vn -0.6404 0.1147 -0.7594
vn -0.6038 0.5067 -0.6153
vn 0.2787 0.4933 -0.8240
vn 0.2315 -0.0764 -0.9698
vn -0.7371 0.5535 -0.3876
vn -0.8766 0.1726 -0.4490
vn -0.9539 0.1769 -0.2424
vn -0.8327 0.5535 -0.0113
vn -0.7893 0.5803 -0.2006
vn 0.8766 -0.1726 0.4490
vn 0.6170 -0.1206 0.7776
vn 0.5104 -0.6057 0.6104
vn 0.5862 -0.1375 0.7984
vn -0.2463 0.0000 0.9692
vn -0.2362 0.0484 0.9705
vn 0.6112 -0.1633 0.7744
vn -0.2590 -0.0695 0.9633
vn -0.2835 -0.5444 0.7895
vn -0.8938 -0.3867 -0.2271
vn -0.8444 -0.3521 -0.4038
vn 0.9020 -0.1391 -0.4086
vn 0.9186 -0.1220 -0.3759
usemtl None
s 1
f 57/1/1 59/2/2 17/3/3 23/4/4
f 74/5/5 27/6/6 21/7/7
f 73/8/8 24/9/9 22/10/10
f 72/11/11 31/12/12 8/13/13 30/14/14
f 71/15/15 32/16/16 9/17/17 33/18/18
f 70/19/19 16/20/20 2/21/21 34/22/22
f 69/23/23 35/24/24 7/25/25 29/26/26
f 68/27/27 36/28/28 10/29/29 37/30/30
f 67/31/31 19/32/32 5/33/33 38/34/34
f 51/35/35 78/36/36 58/37/2 48/38/2
f 65/39/37 40/40/37 11/41/38 41/42/38
f 64/43/37 30/44/14 8/45/13 42/46/38
f 20/47/39 30/44/14 64/43/37 76/48/40
f 62/49/41 44/50/42 12/51/43 45/52/44
f 61/53/45 28/54/46 6/55/47 46/56/48
f 18/57/49 28/54/46 61/53/45 77/58/50
f 59/2/2 48/38/2 13/59/51 49/60/51
f 58/37/2 26/61/52 4/62/53 50/63/51
f 29/64/26 66/65/54 56/66/55 15/67/56
f 56/66/55 52/68/57 14/69/58 53/70/59
f 55/71/60 24/72/9 2/73/21 54/74/61
f 52/68/57 55/71/60 54/74/61 14/69/58
f 51/35/35 48/38/2 59/2/2 57/1/1
f 15/67/56 56/66/55 53/70/59 1/75/62
f 16/76/20 26/61/52 58/37/2 78/36/36
f 39/77/54 52/68/57 56/66/55 66/65/54
f 1/75/62 53/70/59 57/78/1 23/79/4
f 53/70/59 14/69/58 51/80/35 57/78/1
f 48/38/2 58/37/2 50/63/51 13/59/51
f 39/77/54 75/81/54 55/71/60 52/68/57
f 17/3/3 59/2/2 49/60/51 3/82/63
f 47/83/50 77/58/50 61/53/45 44/84/42
f 3/82/63 49/60/51 60/85/50 25/86/64
f 49/60/51 13/59/51 47/83/50 60/85/50
f 44/50/42 61/87/45 46/88/48 12/51/43
f 47/83/50 44/84/42 62/89/41 60/85/50
f 19/90/32 62/49/41 45/52/44 5/91/33
f 43/92/65 76/48/40 64/43/37 40/40/37
f 5/91/33 45/52/44 63/93/66 27/94/6
f 45/52/44 12/51/43 43/92/65 63/93/66
f 40/40/37 64/43/37 42/46/38 11/41/38
f 43/92/65 40/40/37 65/39/37 63/93/66
f 21/95/7 65/39/37 41/42/38 7/96/25
f 22/97/10 24/72/9 55/71/60 75/81/54
f 7/96/25 41/42/38 66/98/54 29/99/26
f 41/42/38 11/41/38 39/100/54 66/98/54
f 36/28/28 67/31/31 38/34/34 10/29/29
f 3/101/63 25/102/64 67/31/31 36/28/28
f 67/31/31 25/102/64 19/32/32
f 23/103/4 68/27/27 37/30/30 1/104/62
f 17/105/3 68/27/27 23/103/4
f 17/105/3 3/101/63 36/28/28 68/27/27
f 15/106/56 69/23/23 29/26/26
f 1/104/62 37/30/30 69/23/23 15/106/56
f 37/30/30 10/29/29 35/24/24 69/23/23
f 32/16/16 70/19/19 34/22/22 9/17/17
f 4/107/53 26/108/52 70/19/19 32/16/16
f 70/19/19 26/108/52 16/20/20
f 28/109/46 71/15/15 33/18/18 6/110/47
f 18/111/49 71/15/15 28/109/46
f 18/111/49 4/107/53 32/16/16 71/15/15
f 20/112/39 72/11/11 30/14/14
f 6/110/47 33/18/18 72/11/11 20/112/39
f 33/18/18 9/17/17 31/12/12 72/11/11
f 31/12/12 73/8/8 22/10/10 8/13/13
f 9/17/17 34/22/22 73/8/8 31/12/12
f 34/22/22 2/21/21 24/9/9 73/8/8
f 35/24/24 74/5/5 21/7/7 7/25/25
f 10/29/29 38/34/34 74/5/5 35/24/24
f 38/34/34 5/33/33 27/6/6 74/5/5
f 11/41/38 42/46/38 75/113/54 39/100/54
f 42/46/38 8/45/13 22/114/10 75/113/54
f 12/51/43 46/88/48 76/48/40 43/92/65
f 46/88/48 6/115/47 20/47/39 76/48/40
f 13/59/51 50/63/51 77/58/50 47/83/50
f 50/63/51 4/62/53 18/57/49 77/58/50
f 14/69/58 54/74/61 78/116/36 51/80/35
f 54/74/61 2/73/21 16/117/20 78/116/36
f 60/85/50 62/89/41 19/118/32 25/86/64
f 63/93/66 65/39/37 21/95/7 27/94/6
