# Blender v2.81 (sub 16) OBJ File: ''
# www.blender.org
mtllib espejo.mtl
o Circle.001
v -0.725298 -0.920657 -0.791633
v -0.725298 -0.976657 -0.963983
v -0.725298 -1.123266 -1.070501
v -0.725298 -1.304486 -1.070501
v -0.725298 -1.451095 -0.963983
v -0.725298 -1.507095 -0.791633
v -0.725298 -1.451095 -0.619284
v -0.725298 -1.304486 -0.512766
v -0.725298 -1.123266 -0.512766
v -0.725298 -0.976657 -0.619284
v -0.811558 -0.920657 -0.791633
v -0.811558 -0.976657 -0.963983
v -0.811558 -1.123266 -1.070501
v -0.811558 -1.304486 -1.070501
v -0.811558 -1.451095 -0.963983
v -0.811558 -1.507095 -0.791633
v -0.811558 -1.451095 -0.619284
v -0.811558 -1.304486 -0.512766
v -0.811558 -1.123266 -0.512766
v -0.811558 -0.976657 -0.619284
v -0.768428 -1.123266 -1.070501
v -0.768428 -1.304486 -1.070501
v -0.768428 -0.976657 -0.619284
v -0.768428 -0.920657 -0.791633
v -0.768428 -1.451095 -0.619284
v -0.768428 -1.304486 -0.512766
v -0.768428 -1.451095 -0.963983
v -0.768428 -0.976657 -0.963983
v -0.768428 -1.123266 -0.512766
v -0.768428 -1.507095 -0.791633
v -0.724991 -0.957325 -0.966549
v -0.724991 -0.901325 -0.794200
v -0.811251 -0.957325 -0.966549
v -0.811251 -0.901325 -0.794200
v -0.768121 -0.901325 -0.794200
v -0.768121 -0.957325 -0.966549
v -0.725298 -0.897343 -0.784058
v -0.725298 -0.953342 -0.611708
v -0.811558 -0.897343 -0.784058
v -0.811558 -0.953342 -0.611708
v -0.768428 -0.953342 -0.611708
v -0.768428 -0.897343 -0.784058
v -0.725298 -0.965002 -0.603242
v -0.725298 -1.111611 -0.496724
v -0.811558 -0.965002 -0.603242
v -0.811558 -1.111611 -0.496724
v -0.768428 -0.965002 -0.603242
v -0.768428 -1.111611 -0.496724
v -0.725298 -1.123266 -0.491330
v -0.725298 -1.304486 -0.491330
v -0.811558 -1.123266 -0.491330
v -0.811558 -1.304486 -0.491330
v -0.768428 -1.304486 -0.491330
v -0.768428 -1.123266 -0.491330
v -0.725298 -1.315147 -0.498092
v -0.725298 -1.461756 -0.604609
v -0.811558 -1.315147 -0.498092
v -0.811558 -1.461756 -0.604609
v -0.768428 -1.461756 -0.604609
v -0.768428 -1.315147 -0.498092
v -0.725298 -1.466993 -0.614118
v -0.725298 -1.522993 -0.786468
v -0.811558 -1.466993 -0.614118
v -0.811558 -1.522993 -0.786468
v -0.768428 -1.466993 -0.614118
v -0.768428 -1.522993 -0.786468
v -0.725298 -1.522858 -0.796755
v -0.725298 -1.466859 -0.969105
v -0.811558 -1.522858 -0.796755
v -0.811558 -1.466859 -0.969105
v -0.768428 -1.466859 -0.969105
v -0.768428 -1.522858 -0.796755
v -0.725298 -1.461828 -0.978756
v -0.725298 -1.315218 -1.085274
v -0.811558 -1.461828 -0.978756
v -0.811558 -1.315218 -1.085274
v -0.768428 -1.315218 -1.085274
v -0.768428 -1.461828 -0.978756
v -0.725298 -1.304486 -1.092146
v -0.725298 -1.123266 -1.092146
v -0.811558 -1.304486 -1.092146
v -0.811558 -1.123266 -1.092146
v -0.768428 -1.123266 -1.092146
v -0.768428 -1.304486 -1.092146
v -0.768428 -1.111689 -1.086436
v -0.768428 -0.965080 -0.979918
v -0.725298 -1.114111 -1.087619
v -0.725298 -0.967501 -0.981101
v -0.811558 -1.114111 -1.087619
v -0.811558 -0.967501 -0.981101
v -0.768428 -1.114111 -1.087619
v -0.768428 -0.967501 -0.981101
vt 0.876081 0.639902
vt 0.876081 0.683998
vt 0.859329 0.683998
vt 0.859329 0.639902
vt 0.800241 0.683998
vt 0.800241 0.639902
vt 0.820352 0.639902
vt 0.820352 0.683998
vt 0.345175 0.820501
vt 0.345175 0.864597
vt 0.328829 0.864597
vt 0.328829 0.820501
vt 0.500377 0.814721
vt 0.482370 0.814721
vt 0.482370 0.999999
vt 0.500377 0.999999
vt 0.127902 0.958413
vt 0.170434 0.958413
vt 0.170131 0.976837
vt 0.127598 0.976837
vt 0.554506 0.858818
vt 0.554506 0.902914
vt 0.536152 0.902914
vt 0.536152 0.858818
vt 0.186112 0.817850
vt 0.170567 0.823087
vt 0.225791 0.999297
vt 0.241337 0.994061
vt 0.859329 0.639902
vt 0.859329 0.683998
vt 0.839891 0.683998
vt 0.839891 0.639902
vt 0.257015 0.817805
vt 0.241337 0.823086
vt 0.296561 0.999296
vt 0.312239 0.994015
vt 0.377616 0.864597
vt 0.377616 0.908693
vt 0.361471 0.908693
vt 0.361471 0.864597
vt 0.839891 0.639902
vt 0.839891 0.683998
vt 0.820352 0.683998
vt 0.820352 0.639902
vt 0.482370 0.650456
vt 0.439837 0.650456
vt 0.439837 0.636359
vt 0.482370 0.636359
vt 0.651455 0.994096
vt 0.672594 0.994096
vt 0.672594 0.808818
vt 0.651455 0.808818
vt 0.451017 0.818303
vt 0.451017 0.862399
vt 0.433197 0.862713
vt 0.433197 0.818617
vt 0.415297 0.862399
vt 0.415297 0.906495
vt 0.397304 0.906495
vt 0.397304 0.862399
vt 0.518264 0.814721
vt 0.500377 0.814721
vt 0.500377 1.000000
vt 0.518264 1.000000
vt 0.882139 0.369535
vt 0.924671 0.369535
vt 0.924671 0.388084
vt 0.882139 0.388084
vt 0.651455 0.808818
vt 0.630109 0.808818
vt 0.630109 0.994096
vt 0.651455 0.994096
vt 0.924975 0.195658
vt 0.882442 0.195658
vt 0.882442 0.377061
vt 0.924975 0.377061
vt 0.967507 0.195658
vt 0.967507 0.377061
vt 0.567436 0.825249
vt 0.586350 0.821637
vt 0.586350 0.636359
vt 0.567436 0.639971
vt 0.451017 0.906495
vt 0.433197 0.906810
vt 0.085369 0.958413
vt 0.085066 0.976837
vt 0.607134 0.226427
vt 0.588220 0.222815
vt 0.588220 0.408094
vt 0.607134 0.411706
vt 0.757708 0.800918
vt 0.715175 0.800918
vt 0.715175 0.938695
vt 0.757708 0.938695
vt 0.800241 0.800918
vt 0.800241 0.938695
vt 0.927839 0.986196
vt 0.952014 0.986196
vt 0.952014 0.800918
vt 0.927839 0.800918
vt 0.967204 0.369535
vt 0.967204 0.388084
vt 0.800241 0.728094
vt 0.820352 0.728094
vt 0.712177 0.076534
vt 0.692619 0.061802
vt 0.587577 0.211695
vt 0.042533 0.636359
vt 0.000000 0.636359
vt 0.000000 0.820636
vt 0.042533 0.820636
vt 0.085066 0.636359
vt 0.085066 0.820636
vt 0.882139 0.019281
vt 0.876096 0.000000
vt 0.706134 0.057253
vt 0.839891 0.728094
vt 0.820352 0.728094
vt 0.859329 0.728094
vt 0.839891 0.728094
vt 0.957467 0.394349
vt 0.938870 0.388084
vt 0.883645 0.564294
vt 0.902243 0.570559
vt 0.042533 0.833712
vt 0.000000 0.833712
vt 0.000000 0.994102
vt 0.042533 0.994102
vt 0.085066 0.833712
vt 0.085066 0.994102
vt 0.312239 0.864597
vt 0.312239 0.820501
vt 0.328829 0.820501
vt 0.328829 0.864597
vt 0.882139 0.577332
vt 0.937363 0.753542
vt 0.957467 0.746770
vt 0.554506 0.814721
vt 0.536152 0.814721
vt 0.312239 0.908693
vt 0.328829 0.908693
vt 0.524903 0.636359
vt 0.482370 0.636359
vt 0.482370 0.814721
vt 0.524903 0.814721
vt 0.567435 0.636359
vt 0.567436 0.814721
vt 0.361471 0.864597
vt 0.361471 0.908693
vt 0.345175 0.908693
vt 0.345175 0.864597
vt 0.518264 1.000000
vt 0.536152 1.000000
vt 0.536152 0.814721
vt 0.518264 0.814722
vt 0.345175 0.908693
vt 0.328829 0.908693
vt 0.361471 0.820501
vt 0.345175 0.820501
vt 0.439837 0.818303
vt 0.482370 0.818303
vt 0.482370 0.644528
vt 0.439837 0.644528
vt 0.397304 0.818303
vt 0.397304 0.644528
vt 0.393738 0.820501
vt 0.393738 0.864597
vt 0.377616 0.864597
vt 0.377616 0.820501
vt 0.377616 0.820501
vt 0.361471 0.820501
vt 0.241337 0.641640
vt 0.225659 0.636359
vt 0.170434 0.812569
vt 0.393738 0.908693
vt 0.377616 0.908693
vt 0.842773 0.937850
vt 0.885306 0.937850
vt 0.885306 0.800918
vt 0.842773 0.800918
vt 0.800241 0.937850
vt 0.800241 0.800918
vt 0.480596 0.818303
vt 0.480596 0.862399
vt 0.468499 0.862399
vt 0.468499 0.818303
vt 0.397304 0.650456
vt 0.397304 0.636359
vt 0.480596 0.906495
vt 0.468499 0.906495
vt 0.312239 0.641595
vt 0.296693 0.636359
vt 0.241469 0.812568
vt 0.354771 0.820501
vt 0.397304 0.820501
vt 0.397304 0.636359
vt 0.354771 0.636359
vt 0.312239 0.820501
vt 0.312239 0.636359
vt 0.415297 0.862399
vt 0.415297 0.818303
vt 0.433197 0.818303
vt 0.433197 0.862399
vt 0.415297 0.818303
vt 0.397304 0.818303
vt 0.709565 0.808818
vt 0.691558 0.808818
vt 0.691558 0.994096
vt 0.709565 0.994096
vt 0.415297 0.906495
vt 0.433197 0.906495
vt 0.757708 0.800918
vt 0.800241 0.800918
vt 0.800241 0.639902
vt 0.757708 0.639902
vt 0.715175 0.800918
vt 0.715175 0.639902
vt 0.924671 0.019215
vt 0.882139 0.019215
vt 0.882139 0.000000
vt 0.924671 0.000000
vt 0.712177 0.561600
vt 0.705581 0.582647
vt 0.875543 0.639902
vt 0.882139 0.618855
vt 0.876081 0.728094
vt 0.859329 0.728094
vt 0.967204 0.019215
vt 0.967204 0.000000
vt 0.568022 0.411570
vt 0.587577 0.411570
vt 0.587573 0.226292
vt 0.568019 0.226293
vt 0.587577 0.211560
vt 0.482531 0.061670
vt 0.462973 0.076402
vt 0.472131 0.058868
vt 0.302167 0.001617
vt 0.293009 0.019152
vt 0.287007 0.000000
vt 0.117045 0.057257
vt 0.123047 0.076409
vt 0.105778 0.063401
vt 0.000738 0.213296
vt 0.018007 0.226303
vt 0.000000 0.226304
vt 0.000003 0.411581
vt 0.018010 0.411581
vt 0.004787 0.421542
vt 0.109832 0.571432
vt 0.123056 0.561471
vt 0.117962 0.577725
vt 0.287926 0.634976
vt 0.293020 0.618722
vt 0.298548 0.636358
vt 0.468510 0.579101
vt 0.462982 0.561464
vt 0.480084 0.574346
vt 0.585124 0.424451
vt 0.586350 0.825249
vt 0.586350 0.869346
vt 0.586350 0.913442
vt 0.572227 0.913442
vt 0.572227 0.869346
vt 0.572227 0.825249
vt 0.468499 0.862714
vt 0.468499 0.906810
vt 0.451017 0.906495
vt 0.451017 0.862399
vt 0.672642 0.639902
vt 0.630109 0.639902
vt 0.630109 0.808818
vt 0.672642 0.808818
vt 0.715175 0.639902
vt 0.715175 0.808818
vt 0.468499 0.818617
vt 0.451017 0.818303
vt 0.566960 0.902914
vt 0.566960 0.947010
vt 0.566960 0.991106
vt 0.557860 0.991106
vt 0.557860 0.947010
vt 0.557860 0.902914
vt 0.554506 0.858818
vt 0.554506 0.814721
vt 0.567062 0.814721
vt 0.567062 0.858818
vt 0.567062 0.902914
vt 0.554506 0.902914
vt 0.397304 0.950592
vt 0.397304 0.906495
vt 0.406363 0.906495
vt 0.406363 0.950592
vt 0.406363 0.994688
vt 0.397304 0.994688
vt 0.557860 0.902914
vt 0.557860 0.947010
vt 0.557860 0.991106
vt 0.547157 0.991106
vt 0.547157 0.947010
vt 0.547157 0.902914
vt 0.547157 0.947010
vt 0.547157 0.991106
vt 0.536152 0.991106
vt 0.536152 0.947010
vt 0.536152 0.902914
vt 0.547157 0.902914
vt 0.800241 0.792987
vt 0.804028 0.773098
vt 0.812905 0.792987
vt 0.828236 0.746602
vt 0.815786 0.746602
vt 0.827107 0.728094
vt 0.842303 0.773098
vt 0.842303 0.790188
vt 0.831789 0.788101
vt 0.852887 0.790188
vt 0.842303 0.775085
vt 0.852887 0.773242
vt 0.811734 0.763138
vt 0.822319 0.748034
vt 0.822319 0.770164
vt 0.924671 0.188132
vt 0.882139 0.188132
vt 0.967204 0.188132
vt 0.593331 0.425458
vt 0.698373 0.575352
vt 0.691558 0.996811
vt 0.691558 0.811532
vt 0.672594 0.808818
vt 0.672594 0.994097
vt 0.957467 0.732751
vt 0.957467 0.870529
vt 1.000000 0.870529
vt 1.000000 0.732751
vt 1.000000 0.548474
vt 0.957467 0.548474
vt 0.957467 0.388084
vt 1.000000 0.388084
vt 0.127902 0.820636
vt 0.170434 0.820636
vt 0.127902 0.636359
vt 0.170434 0.636359
vt 0.927839 0.800918
vt 0.885306 0.800918
vt 0.885306 0.961934
vt 0.927839 0.961934
vt 0.587577 0.821305
vt 0.587577 0.990221
vt 0.630109 0.990221
vt 0.630109 0.821305
vt 0.587577 0.639902
vt 0.630109 0.639902
vt 0.815786 0.728094
vt 0.800241 0.736451
vt 0.815786 0.748034
vt 0.831789 0.798161
vt 0.831789 0.773098
vt 0.823490 0.780173
vt 0.811734 0.748034
vt 0.800241 0.764435
vt 0.811734 0.773098
vt 0.822319 0.766542
vt 0.834769 0.766542
vt 0.823447 0.748034
vt 0.844458 0.748034
vt 0.834769 0.761861
vt 0.844458 0.766579
vt 0.846329 0.731229
vt 0.838303 0.747941
vt 0.849036 0.747941
vt 0.823490 0.795228
vt 0.823490 0.773098
vt 0.812906 0.780124
vt 0.838303 0.728094
vt 0.828236 0.728427
vt 0.838303 0.747941
vn 0.0000 1.0000 0.0000
vn 0.0000 0.3090 -0.9511
vn 0.0000 -0.8090 -0.5878
vn -1.0000 -0.0000 0.0000
vn 0.0000 -0.1316 -0.9913
vn 0.0000 -1.0000 0.0000
vn 1.0000 -0.0000 0.0000
vn 0.0000 -0.8090 0.5878
vn 0.0000 0.3090 0.9511
vn 0.0000 0.8090 -0.5878
vn 0.0000 0.1316 0.9913
vn 0.0000 -0.3090 0.9511
vn 0.0000 0.9511 -0.3090
vn 0.9999 -0.0152 0.0050
vn -0.9999 0.0152 -0.0050
vn 0.0000 0.9511 0.3090
vn 0.0000 0.5878 0.8090
vn 0.0000 0.0000 1.0000
vn 0.0000 -0.5878 0.8090
vn 0.0000 0.8090 0.5878
vn 0.0000 -0.9511 0.3090
vn 0.0000 -0.3090 -0.9511
vn 0.0000 -0.9511 -0.3090
vn 0.0000 -0.5878 -0.8090
vn 0.0000 0.0000 -1.0000
vn -1.0000 0.0002 -0.0001
vn 0.0000 0.5876 0.8092
vn 0.0000 0.9308 -0.3655
vn 0.0000 0.8195 -0.5731
vn 0.0000 0.5878 -0.8090
vn 0.0000 0.4432 -0.8964
vn 0.0000 -0.5393 -0.8421
vn 0.0000 -0.8867 -0.4623
vn 0.0000 -0.9999 -0.0131
vn 0.0000 -0.8760 0.4824
vn 0.0000 -0.5356 0.8445
vn 0.0000 0.4200 0.9075
vn -0.9998 0.0171 0.0092
vn -0.9993 0.0113 -0.0347
usemtl None
s off
f 14/1/1 22/2/1 84/3/1 81/4/1
f 23/5/2 20/6/2 40/7/2 41/8/2
f 18/9/3 26/10/3 60/11/3 57/12/3
f 14/13/4 76/14/4 75/15/4 15/16/4
f 24/17/5 11/18/5 34/19/5 35/20/5
f 29/21/6 9/22/6 49/23/6 54/24/6
f 6/25/7 67/26/7 68/27/7 5/28/7
f 20/29/8 23/30/8 47/31/8 45/32/8
f 16/33/4 64/34/4 63/35/4 17/36/4
f 30/37/9 16/38/9 64/39/9 66/40/9
f 9/41/10 29/42/10 48/43/10 44/44/10
f 16/45/2 30/46/2 72/47/2 69/48/2
f 18/49/4 52/50/4 51/51/4 19/52/4
f 12/53/11 28/54/11 36/55/11 33/56/11
f 27/57/10 5/58/10 73/59/10 78/60/10
f 8/61/7 55/62/7 56/63/7 7/64/7
f 11/65/12 24/66/12 42/67/12 39/68/12
f 4/69/7 79/70/7 80/71/7 3/72/7
f 36/73/13 33/74/13 34/75/13 35/76/13
f 31/77/13 36/73/13 35/76/13 32/78/13
f 2/79/14 31/80/14 32/81/14 1/82/14
f 28/54/11 2/83/11 31/84/11 36/55/11
f 1/85/5 24/17/5 35/20/5 32/86/5
f 11/87/15 34/88/15 33/89/15 12/90/15
f 42/91/16 39/92/16 40/93/16 41/94/16
f 37/95/16 42/91/16 41/94/16 38/96/16
f 1/97/7 37/98/7 38/99/7 10/100/7
f 24/66/12 1/101/12 37/102/12 42/67/12
f 10/103/2 23/5/2 41/8/2 38/104/2
f 20/105/4 40/106/4 39/107/4 11/87/4
f 47/108/17 45/109/17 46/110/17 48/111/17
f 43/112/17 47/108/17 48/111/17 44/113/17
f 19/114/4 46/115/4 45/116/4 20/105/4
f 29/42/10 19/117/10 46/118/10 48/43/10
f 23/30/8 10/119/8 43/120/8 47/31/8
f 10/121/7 43/122/7 44/123/7 9/124/7
f 54/125/18 51/126/18 52/127/18 53/128/18
f 49/129/18 54/125/18 53/128/18 50/130/18
f 26/131/1 18/132/1 52/133/1 53/134/1
f 9/124/7 49/135/7 50/136/7 8/137/7
f 19/138/6 29/21/6 54/24/6 51/139/6
f 8/140/1 26/131/1 53/134/1 50/141/1
f 60/142/19 57/143/19 58/144/19 59/145/19
f 55/146/19 60/142/19 59/145/19 56/147/19
f 25/148/20 17/149/20 58/150/20 59/151/20
f 17/152/4 58/153/4 57/154/4 18/155/4
f 26/10/3 8/156/3 55/157/3 60/11/3
f 7/158/20 25/148/20 59/151/20 56/159/20
f 65/160/21 63/161/21 64/162/21 66/163/21
f 61/164/21 65/160/21 66/163/21 62/165/21
f 17/166/22 25/167/22 65/168/22 63/169/22
f 6/170/9 30/37/9 66/40/9 62/171/9
f 7/172/7 61/173/7 62/174/7 6/25/7
f 25/167/22 7/175/22 61/176/22 65/168/22
f 72/177/23 69/178/23 70/179/23 71/180/23
f 67/181/23 72/177/23 71/180/23 68/182/23
f 5/183/12 27/184/12 71/185/12 68/186/12
f 30/46/2 6/187/2 67/188/2 72/47/2
f 27/184/12 15/189/12 70/190/12 71/185/12
f 15/191/4 70/192/4 69/193/4 16/33/4
f 78/194/24 75/195/24 76/196/24 77/197/24
f 73/198/24 78/194/24 77/197/24 74/199/24
f 22/200/8 14/201/8 76/202/8 77/203/8
f 15/204/10 27/57/10 78/60/10 75/205/10
f 5/206/7 73/207/7 74/208/7 4/209/7
f 4/210/8 22/200/8 77/203/8 74/211/8
f 84/212/25 81/213/25 82/214/25 83/215/25
f 79/216/25 84/212/25 83/215/25 80/217/25
f 21/218/6 13/219/6 82/220/6 83/221/6
f 13/222/4 82/223/4 81/224/4 14/225/4
f 22/2/1 4/226/1 79/227/1 84/3/1
f 3/228/6 21/218/6 83/221/6 80/229/6
f 29/230/26 48/231/26 47/232/26 23/233/26 41/234/26 42/235/26 24/236/26 35/237/26 36/238/26 28/239/26 86/240/26 85/241/26 21/242/26 83/243/26 84/244/26 22/245/26 77/246/26 78/247/26 27/248/26 71/249/26 72/250/26 30/251/26 66/252/26 65/253/26 25/254/26 59/255/26 60/256/26 26/257/26 53/258/26 54/259/26
f 38/260/27 41/261/27 40/262/27 45/263/27 47/264/27 43/265/27
f 34/75/28 39/68/28 42/67/28 37/102/28 32/78/28 35/76/28
f 92/266/29 90/267/29 33/268/29 36/269/29
f 91/270/30 89/271/30 90/272/30 92/273/30
f 87/274/30 91/270/30 92/273/30 88/275/30
f 88/276/29 92/266/29 36/269/29 31/277/29
f 80/278/31 83/279/31 82/280/31 89/281/31 91/282/31 87/283/31
f 77/284/32 76/285/32 81/286/32 84/287/32 79/288/32 74/289/32
f 71/290/33 70/291/33 75/292/33 78/293/33 73/294/33 68/295/33
f 64/162/34 69/48/34 72/47/34 67/188/34 62/165/34 66/163/34
f 56/296/35 59/297/35 58/298/35 63/299/35 65/300/35 61/301/35
f 53/302/36 52/303/36 57/304/36 60/305/36 55/306/36 50/307/36
f 46/110/37 51/126/37 54/125/37 49/129/37 44/113/37 48/111/37
f 45/116/4 40/106/4 20/105/4
f 46/308/4 19/309/4 51/310/4
f 57/311/4 52/312/4 18/313/4
f 17/314/4 63/315/4 58/316/4
f 16/33/4 69/193/4 64/34/4
f 15/317/4 75/318/4 70/319/4
f 76/320/4 14/321/4 81/322/4
f 21/218/19 28/323/19 12/324/19 13/219/19
f 28/323/19 21/218/19 3/228/19 2/325/19
f 90/326/4 89/327/4 13/222/4 12/90/4
f 87/328/7 88/329/7 2/330/7 3/331/7
f 89/327/4 82/223/4 13/222/4
f 33/89/38 90/326/38 12/90/38
f 11/87/39 39/107/39 34/88/39
f 15/332/16 16/333/16 30/334/16 27/335/16
f 27/335/17 22/336/17 14/337/17 15/332/17
f 13/338/18 14/337/18 22/336/18 21/339/18
f 24/66/21 11/65/21 12/324/21 28/323/21
f 24/17/23 23/340/23 20/341/23 11/18/23
f 20/341/24 23/340/24 29/342/24 19/343/24
f 19/344/25 29/345/25 26/346/25 18/347/25
f 17/348/30 18/349/30 26/350/30 25/351/30
f 16/352/13 17/348/13 25/351/13 30/353/13
f 31/354/38 88/355/38 2/356/38
f 1/357/39 37/358/39 32/359/39
f 10/360/4 43/361/4 38/362/4
f 9/124/7 44/123/7 49/135/7
f 55/363/4 50/364/4 8/365/4
f 7/366/4 61/367/4 56/368/4
f 6/25/7 62/174/7 67/26/7
f 5/369/4 73/370/4 68/371/4
f 4/372/4 79/373/4 74/374/4
f 87/375/4 80/376/4 3/377/4
